<svg xmlns="http://www.w3.org/2000/svg" viewBox="0 0 225.51 225.51">
    <defs>
        <style>
            .cls-1 {
                fill: #12212d;
            }

            .cls-2 {
                fill: #fff;
            }
        </style>
    </defs>
    <title>Asset 2</title>
    <g id="Layer_2" data-name="Layer 2">
        <g id="Layer_1-2" data-name="Layer 1">
            <circle class="cls-1" cx="112.76" cy="112.76" r="112.76" />
            <path class="cls-2"
                d="M149.58,112.69c-.06-11.91,5.32-20.89,16.22-27.51-6.1-8.72-15.31-13.52-27.47-14.46-11.51-.91-24.1,6.71-28.7,6.71-4.87,0-16-6.39-24.78-6.39-18.1.29-37.34,14.44-37.34,43.2a80.7,80.7,0,0,0,4.68,26.34c4.15,11.9,19.13,41.09,34.76,40.61,8.18-.2,14-5.81,24.59-5.81,10.31,0,15.66,5.81,24.78,5.81,15.76-.23,29.32-26.76,33.28-38.7-21.15-10-20-29.19-20-29.8ZM131.23,59.43c8.85-10.51,8-20.08,7.78-23.51-7.82.45-16.86,5.32-22,11.32-5.68,6.42-9,14.36-8.3,23.32C117.15,71.2,124.87,66.86,131.23,59.43Z" />
        </g>
    </g>
</svg>