<svg xmlns="http://www.w3.org/2000/svg" viewBox="0 0 225.51 225.51"><defs><style>.cls-1{fill:#12212d;}.cls-2{fill:#fff;}</style></defs><title>Asset 1</title><g id="Layer_2" data-name="Layer 2"><g id="Layer_1-2" data-name="Layer 1"><circle class="cls-1" cx="112.76" cy="112.76" r="112.76"/><path class="cls-2" d="M155.41,113.27c-.08-13.59,6.07-23.85,18.52-31.4-7-10-17.49-15.45-31.37-16.52C129.41,64.31,115,73,109.78,73c-5.56,0-18.3-7.29-28.3-7.29-20.67.33-42.63,16.48-42.63,49.33a92.48,92.48,0,0,0,5.33,30.08C48.93,158.72,66,192.05,83.89,191.5c9.33-.23,15.92-6.63,28.07-6.63,11.78,0,17.89,6.63,28.3,6.63,18-.26,33.48-30.56,38-44.19-24.15-11.37-22.85-33.33-22.85-34Zm-21-60.81c10.12-12,9.19-22.93,8.89-26.85-8.92.52-19.26,6.07-25.15,12.92-6.48,7.34-10.29,16.41-9.48,26.63C118.37,65.9,127.18,60.94,134.44,52.46Z"/></g></g></svg>